<?xml version="1.0" encoding="utf-8"?>
<!-- Generator: Adobe Illustrator 17.0.0, SVG Export Plug-In . SVG Version: 6.00 Build 0)  -->
<!DOCTYPE svg PUBLIC "-//W3C//DTD SVG 1.1//EN" "http://www.w3.org/Graphics/SVG/1.1/DTD/svg11.dtd">
<svg version="1.1" id="Layer_1" xmlns="http://www.w3.org/2000/svg" xmlns:xlink="http://www.w3.org/1999/xlink" x="0px" y="0px"
	 width="515.333px" height="182.991px" viewBox="0 0 515.333 182.991" enable-background="new 0 0 515.333 182.991"
	 xml:space="preserve">
<g>
	<path fill="#050505" d="M221.758,71.501c0-7.246-7.02-7.02-8.831-7.02c0.226,0.453-3.623-5.887-9.963-5.887
		c-6.34,0-10.642-0.085-10.642-0.085s-2.038-7.614-14.718-17.577c0,0,17.209-5.208,17.209-19.247
		c0-14.038-5.887-16.982-5.887-16.982s-4.981,12.227-20.832,12.227c-15.85,0-32.153-13.133-76.534-13.133
		S31.328,41.272,31.328,58.029l-12.114,0.057c0,0-8.661-0.34-8.661,5.944c0,0-9.171-1.868-9.171,7.133s7.812,7.133,7.812,7.133
		l-0.17,44.834c0,0-1.019,11.208,11.208,11.208s13.586,0.34,13.586,0.34s-4.302,42.796,35.323,42.796s84.912-0.227,84.912-0.227
		s33.965-0.906,33.965-43.248h14.945c0,0,11.548-0.679,11.548-13.586s-0.226-41.664-0.226-41.664S221.758,78.747,221.758,71.501z
		 M94.273,119.611c0,3.292-2.669,5.961-5.961,5.961H20.76c-3.292,0-5.961-2.669-5.961-5.961V73.387c0-3.292,2.669-5.961,5.961-5.961
		h67.552c3.292,0,5.961,2.669,5.961,5.961V119.611z M208.395,119.611c0,3.292-2.669,5.961-5.961,5.961h-67.552
		c-3.292,0-5.961-2.669-5.961-5.961V73.387c0-3.292,2.669-5.961,5.961-5.961h67.552c3.292,0,5.961,2.669,5.961,5.961V119.611z"/>
	<path fill="#050505" d="M431.321,97.88c0,0,0.113-3.962,0.113-6.906c0-2.943-4.981-15.624-19.02-15.624
		c-14.039,0-18.114,10.416-18.114,10.416s-6.114-10.416-17.549-10.416c-11.435,0-19.926,6.001-19.926,20.606
		s10.189,20.379,19.813,20.379c9.623,0,12.114-4.303,13.699-5.434c1.585-1.132,0.227-2.378,0.227-2.378l-7.472-3.396
		c0,0-2.038,2.83-6.227,2.717c-6.68,0-7.586-9.85-7.586-9.85h22.756c0,13.359,13.586,18.341,20.605,18.341
		c7.019,0,11.661-3.963,13.133-5.434c1.472-1.472,0.453-2.378,0.453-2.378l-6.793-3.396c0,0,0.34,2.604-7.359,2.604
		c-7.699,0-6.793-9.624-6.793-9.624L431.321,97.88z M413.206,85.512c7.982,0,7.897,7.048,7.897,7.048l-15.454-0.085
		C405.649,92.475,405.225,85.512,413.206,85.512z M369.561,91.795c0,0-0.425-6.963,7.557-6.963c7.982,0,7.897,7.048,7.897,7.048
		L369.561,91.795z"/>
	<path fill="#050505" d="M433.245,57.066c0,0-0.297-2.717,2.08-2.717s9.807,0,9.807,0s1.868-0.297,1.868,2.59
		c0,2.887,0,29.507,0,29.507s0,1.359,1.868-0.34c1.868-1.698,9.001-10.869,9.001-10.869h12.907c0,0,3.057,0.17,1.019,2.717
		c-2.038,2.547-11.208,13.586-11.208,13.586s-0.764,0.637-0.764,2.038c0,1.401,0.764,2.123,0.764,2.123l11.378,17.832
		c0,0,1.359,2.208-1.359,2.208s-11.378,0-11.378,0l-7.812-12.567c0,0-0.255-0.976-0.977-0.976s-3.269,3.948-3.269,3.948v7.897
		c0,0,0.425,1.783-1.783,1.783c-2.208,0-9.85,0-9.85,0s-2.293,0.679-2.293-2.717C433.245,109.712,433.245,57.066,433.245,57.066z"/>
	<path fill="#050505" d="M500.836,79.823c0,0,1.868-1.868-1.189-3.142s-5.944-2.293-10.954-2.293
		c-5.01,0-14.775,3.057-14.775,13.416s10.784,11.378,10.784,11.378s6.708,1.274,6.708,3.736s-1.953,3.312-3.906,3.312
		s-7.472-2.208-7.472-2.208s-1.953-1.359-2.547,0.509s-3.057,7.387-3.057,7.387s-0.509,1.274,1.359,1.953
		c1.868,0.679,7.557,2.208,12.058,2.208s16.643-2.802,16.643-13.331s-13.756-12.652-13.756-12.652s-4.5-0.594-4.5-3.227
		c0-2.632,4.5-2.632,4.5-2.632s2.972-0.17,4.84,1.868c0.509,0.34,1.359,0.679,2.038-0.255
		C498.288,84.917,500.836,79.823,500.836,79.823z"/>
	<g>
		<path fill="#050505" d="M325.572,142.602h-0.098c-0.488,1.956-0.979,4.453-1.515,6.36L322,155.957h7.289l-2.054-6.995
			C326.649,147.004,326.06,144.558,325.572,142.602z"/>
		<path fill="#050505" d="M250.448,142.602h-0.098c-0.488,1.956-0.976,4.453-1.515,6.36l-1.958,6.995h7.289l-2.054-6.995
			C251.526,147.004,250.939,144.558,250.448,142.602z"/>
		<path fill="#050505" d="M220.399,123.807c0,0-0.227,20.605-28.078,18.567c0,0-0.346,10.619-6.453,20.265
			c-7.812,12.341-16.869,14.605-16.869,14.605l342.365,0.453l0.453-54.344L220.399,123.807z M257.788,169.999l-2.545-8.465h-9.441
			l-2.348,8.465h-7.732l10.081-32.975h9.783l10.224,32.975H257.788z M293.196,164.323c2.25,0,4.744-0.488,6.212-1.075l1.125,5.822
			c-1.369,0.685-4.45,1.417-8.462,1.417c-11.399,0-17.272-7.093-17.272-16.486c0-11.253,8.024-17.516,18.004-17.516
			c3.866,0,6.801,0.783,8.122,1.467l-1.518,5.92c-1.515-0.634-3.619-1.223-6.262-1.223c-5.92,0-10.518,3.572-10.518,10.911
			C282.627,160.165,286.541,164.323,293.196,164.323z M332.911,169.999l-2.545-8.465h-9.441l-2.348,8.465h-7.732l10.081-32.975
			h9.783l10.227,32.975H332.911z M376.344,166.085c-3.473,2.887-8.759,4.256-15.215,4.256c-3.866,0-6.607-0.244-8.465-0.488v-32.389
			c2.738-0.44,6.31-0.685,10.078-0.685c6.262,0,10.322,1.125,13.504,3.521c3.423,2.545,5.578,6.607,5.578,12.429
			C381.823,159.04,379.523,163.395,376.344,166.085z M415.08,169.999h-21.037v-32.975h20.352v6.116h-12.867v6.849h12.132v6.066
			h-12.132v7.828h13.551V169.999z M455.872,169.999l-0.491-12.623c-0.146-3.962-0.292-8.757-0.292-13.551h-0.149
			c-1.027,4.208-2.396,8.905-3.667,12.769l-4.012,12.867h-5.822l-3.524-12.769c-1.077-3.866-2.202-8.563-2.985-12.867h-0.098
			c-0.194,4.453-0.342,9.539-0.586,13.65l-0.586,12.525h-6.899l2.104-32.975h9.932l3.229,11.009
			c1.027,3.816,2.054,7.923,2.789,11.79h0.146c0.929-3.816,2.054-8.17,3.131-11.84l3.524-10.959h9.736l1.81,32.975H455.872z
			 M491.278,156.252v13.748h-7.438v-13.504l-10.42-19.471h8.512l3.375,7.926c1.027,2.396,1.714,4.158,2.545,6.31h0.098
			c0.732-2.054,1.515-3.962,2.494-6.31l3.327-7.926h8.366L491.278,156.252z"/>
		<path fill="#050505" d="M363.525,142.504c-1.664,0-2.741,0.146-3.375,0.295v21.576c0.634,0.146,1.664,0.146,2.592,0.146
			c6.75,0.048,11.155-3.67,11.155-11.545C373.945,146.123,369.933,142.504,363.525,142.504z"/>
	</g>
	<path fill="#050505" d="M353.598,78.974c0,0,0.509-2.887-3.566-2.887c-4.076,0-20.888,0.34-20.888,0.34s-2.717-0.17-2.717,2.547
		s0,7.472,0,7.472s-0.679,3.396,3.566,3.396s9.34-0.17,9.34-0.17s0.34,15.284-15.963,15.284c-19.02,0-19.19-18.681-19.19-22.926
		c0-4.246,1.245-26.266,18.907-26.266c9.342,0,14.831,10.359,14.831,10.359l11.605-0.056c0,0,2.547,0.17,2.547-2.717
		c0-2.887-3.906-20.888-30.399-20.888c-26.747,0-30.908,31.248-30.908,31.248l-0.255,7.302h-8.746v-35.55
		c0,0,0.793-2.943-2.264-2.943c-3.057,0-10.303,0.226-10.303,0.226s-1.698-0.566-3.51,2.151
		c-1.811,2.717-29.663,46.871-29.663,46.871s-2.717,3.85,2.264,3.85c4.981,0,25.021-0.113,25.021-0.113s2.378-0.453,2.378,1.359
		c0,1.812-0.113,19.36-0.113,19.36s1.585,2.717,4.415-0.679c2.83-3.396,10.642-13.246,10.642-13.246l0.113-8.152l10.911-0.014
		c0,0,3.863,24.242,28.318,24.242c12.397,0,20.039-8.321,20.039-8.321l0.17,4.076c0,0-0.509,3.736,3.906,3.736
		c4.415,0,7.133,0,7.133,0s2.547-0.34,2.547-3.396C353.768,111.41,353.598,78.974,353.598,78.974z M254.59,81.238
		c-1.585,0-0.679-1.698-0.679-1.698l11.548-17.662l0.113,19.473L254.59,81.238z"/>
</g>
</svg>
